<?xml version="1.0" encoding="UTF-8"?>
<svg id="Layer_1" data-name="Layer 1" xmlns="http://www.w3.org/2000/svg" xmlns:xlink="http://www.w3.org/1999/xlink" viewBox="0 0 883.84 678.7">
  <defs>
    <style>
      .cls-1 {
        fill: url(#linear-gradient);
      }

      .cls-1, .cls-2, .cls-3, .cls-4, .cls-5, .cls-6, .cls-7, .cls-8, .cls-9 {
        stroke-width: 0px;
      }

      .cls-2 {
        fill: #f7911e;
      }

      .cls-3 {
        fill: url(#linear-gradient-5);
      }

      .cls-4 {
        fill: none;
      }

      .cls-10 {
        filter: url(#drop-shadow-1);
      }

      .cls-5 {
        fill: url(#linear-gradient-2);
      }

      .cls-11 {
        filter: url(#drop-shadow-2);
      }

      .cls-6 {
        fill: url(#linear-gradient-3);
      }

      .cls-12 {
        clip-path: url(#clippath);
      }

      .cls-7 {
        fill: url(#radial-gradient);
      }

      .cls-8 {
        fill: #fff;
      }

      .cls-9 {
        fill: url(#linear-gradient-4);
      }
    </style>
    <clipPath id="clippath">
      <path class="cls-4" d="M80.17,257.44l33.78-31V97.89l-31.2-20.44s-18.34-13.33-2.28-16.07c9.63-1.64,103.89-14.3,103.89-14.3l40.89,77.78,39.41-84.44,112.15-9.78s24.44-2.22,5.33,25.78l-17.64,21.63v50.07l83.19-1.33s45.38-.3,49.82,40.3c3.83,35-9.48,54.81-28.44,61.93,0,0,31.11,3.85,27.89,36.64,0,0,64,8.4,85.93,82.47,0,0,46.81-20.74,91.26,18.37,0,0,5.93-13.04,19.56-17.78l-5.33-80.44,119.93,3.56-19.28,104.61,26.76,21.61-22.76,49.71s32.53,19.03,35.65,66.44v25.48s21.49,1.78,26.23,14.81,5.93,40.3-8.3,68.74-61.17,34.19-85.93,8.48c-14.22,9.3-54.52,12.26-69.33-6.11,0,0-16,26.67-69.93,16s-54.79-39.11-54.79-39.11c0,0-8.02,34.37-58.99,34.37s-55.93-13.63-55.93-13.63c0,0-8.07,17.78-60.22,11.85s-61.04-39.97-61.04-39.97c0,0-28.44,53.01-113.78,53.01s-137.33-67.56-146-106.67,18.59-97.7,18.59-97.7c0,0-22.82-36.97-26.82-52.38,0,0-30.66-17.56-36-57.3s18.21-82.89,53.74-76.63Z"/>
    </clipPath>
    <radialGradient id="radial-gradient" cx="686.15" cy="333.04" fx="686.15" fy="333.04" r="1287.77" gradientTransform="translate(10.87 164.97) scale(.62 .53)" gradientUnits="userSpaceOnUse">
      <stop offset="0" stop-color="#2bace2"/>
      <stop offset="1" stop-color="#2e3690"/>
    </radialGradient>
    <filter id="drop-shadow-1" filterUnits="userSpaceOnUse">
      <feOffset dx="7" dy="7"/>
      <feGaussianBlur result="blur" stdDeviation="5"/>
      <feFlood flood-color="#010101" flood-opacity=".4"/>
      <feComposite in2="blur" operator="in"/>
      <feComposite in="SourceGraphic"/>
    </filter>
    <linearGradient id="linear-gradient" x1="205.76" y1="270.58" x2="205.76" y2="597.43" gradientTransform="translate(-22.32 23.39) rotate(-3.57)" gradientUnits="userSpaceOnUse">
      <stop offset="0" stop-color="#fedf00"/>
      <stop offset=".3" stop-color="#fcda02"/>
      <stop offset=".63" stop-color="#f9cd0b"/>
      <stop offset=".97" stop-color="#f3b719"/>
      <stop offset="1" stop-color="#f3b51b"/>
    </linearGradient>
    <linearGradient id="linear-gradient-2" x1="453.79" y1="382.69" x2="453.79" y2="611.57" gradientTransform="translate(12.8 -19.28) rotate(1.91)" xlink:href="#linear-gradient"/>
    <linearGradient id="linear-gradient-3" x1="454.72" y1="293.23" x2="454.72" y2="375.95" gradientTransform="translate(12.8 -19.28) rotate(1.91)" xlink:href="#linear-gradient"/>
    <linearGradient id="linear-gradient-4" x1="674.58" y1="374.92" x2="674.58" y2="603.79" gradientTransform="translate(-12.55 28.83) rotate(-1.98)" xlink:href="#linear-gradient"/>
    <linearGradient id="linear-gradient-5" x1="744.45" y1="288.61" x2="744.45" y2="373.9" gradientTransform="translate(-12.55 28.83) rotate(-1.98)" xlink:href="#linear-gradient"/>
    <filter id="drop-shadow-2" filterUnits="userSpaceOnUse">
      <feOffset dx="7" dy="7"/>
      <feGaussianBlur result="blur-2" stdDeviation="5"/>
      <feFlood flood-color="#010101" flood-opacity=".4"/>
      <feComposite in2="blur-2" operator="in"/>
      <feComposite in="SourceGraphic"/>
    </filter>
  </defs>
  <g class="cls-12">
    <rect class="cls-7" x="-127.72" y="-73.6" width="1130.11" height="830.2"/>
  </g>
  <g class="cls-10">
    <path class="cls-2" d="M326.46,483.26c-5.66-65.7-46.16-101.6-88.54-118.75-49.55-20.05-86.46,6.89-86.46,6.89,0,0-12.83-40.32,52.05-41.24,55.89-.8,68.24,32.64,68.24,32.64l41.07-26.99s-36.1-66.33-128.01-48.58c-77.88,14.2-92.74,68.7-83.21,100.17,6.54,19.19,21.87,39.77,21.87,39.77,0,0,26.55-41.46,84.03-33.14,40.14,5.81,71.32,44.71,72.01,93.18.59,41.44-10.71,72.75-63.74,72.85-58-1.73-51.67-52.71-51.67-52.71h0c10.12,12.65,26.04,20.36,43.44,19.27,28.39-1.77,48.9-26.17,48.2-54.6-.95-38.48-32.21-52.06-60.2-50.82,0,0-45.52-1.62-72.28,40.58-27.07,42.68-13.29,152.3,94.56,149.43,83.25-3.25,114.01-65.8,108.65-127.96ZM213.04,470.63c.78,12.55-8.76,23.36-21.31,24.14s-23.36-8.76-24.14-21.31c-.78-12.55,8.76-23.36,21.31-24.14s23.36,8.76,24.14,21.31Z"/>
    <g>
      <path class="cls-2" d="M561.95,528.29c-1.27-86.53-71.47-79.37-71.47-79.37,15.89-31.99,48.86-7.36,48.86-7.36l20.73-34.89s-8.49-12.14-34.07-18.92c-48.56-11.1-67.32,36.89-67.32,36.89-2.57-11.94-18.24-39.74-52.5-43.85-34.25-4.11-58.3,23.55-58.3,23.55l25.53,34.65c34.71-27.3,50.7,8.8,50.7,8.8l-77.59-2.58-1.51,45.46,22.01.73s-19.41,13.67-23.41,41.47c-3.13,21.77,2.7,74.72,54.37,76.44,46.79,1.56,52.98-21.57,52.98-21.57,26.23,46.82,112.27,27.08,111-59.45ZM452.17,545.2s-5.41,26.8-35.81,22.85c-11.75-1.53-29.57-6.39-31.18-22.93-7.29-74.95,70.2-51.47,70.2-51.47,0,0,61.69-16.4,63.27,35.36,1.26,41.42-50.8,59.7-66.47,16.19Z"/>
      <path class="cls-2" d="M408.34,373.91l-39.85-32.01s19.89-53.29,94.07-48.9c74.17,4.4,88.23,62.97,88.23,62.97l-44.23,19.43s-7.5-28.41-46.72-32.54c-39.22-4.12-51.51,31.04-51.51,31.04Z"/>
    </g>
    <g>
      <path class="cls-2" d="M792.58,522.82c-7.13-86.24-76.69-74.34-76.69-74.34,13.68-32.99,48.25-10.65,48.25-10.65l18.32-36.21s-9.29-11.54-35.28-16.57c-49.21-7.79-64.67,41.37-64.67,41.37-3.37-11.74-20.89-38.41-55.35-40.19-34.45-1.77-56.57,27.45-56.57,27.45l27.82,32.84c32.78-29.59,51.18,5.35,51.18,5.35l-77.58,2.68,1.57,45.45,22.01-.76s-18.44,14.95-20.55,42.96c-1.65,21.93,7.76,74.36,59.43,72.58,46.79-1.62,51.39-25.11,51.39-25.11,29.34,44.94,113.84,19.41,106.71-66.83ZM684.19,547.13s-3.58,27.1-34.18,25.22c-11.83-.73-29.94-4.38-32.66-20.76-12.35-74.28,66.55-56.11,66.55-56.11,0,0,60.44-20.54,65.52,30.99,4.07,41.24-46.63,63.01-65.22,20.66Z"/>
      <path class="cls-2" d="M722.48,378.48l-2.83-82.03,51.68,2.66-12.14,81.31s-8.64-3.21-19.44-3.84c-9.58-.56-17.26,1.89-17.26,1.89Z"/>
    </g>
  </g>
  <g>
    <path class="cls-1" d="M322.46,479.26c-5.66-65.7-46.16-101.6-88.54-118.75-49.55-20.05-86.46,6.89-86.46,6.89,0,0-12.83-40.32,52.05-41.24,55.89-.8,68.24,32.64,68.24,32.64l41.07-26.99s-36.1-66.33-128.01-48.58c-77.88,14.2-92.74,68.7-83.21,100.17,6.54,19.19,21.87,39.77,21.87,39.77,0,0,26.55-41.46,84.03-33.14,40.14,5.81,71.32,44.71,72.01,93.18.59,41.44-10.71,72.75-63.74,72.85-58-1.73-51.67-52.71-51.67-52.71h0c10.12,12.65,26.04,20.36,43.44,19.27,28.39-1.77,48.9-26.17,48.2-54.6-.95-38.48-32.21-52.06-60.2-50.82,0,0-45.52-1.62-72.28,40.58-27.07,42.68-13.29,152.3,94.56,149.43,83.25-3.25,114.01-65.8,108.65-127.96ZM209.04,466.63c.78,12.55-8.76,23.36-21.31,24.14s-23.36-8.76-24.14-21.31c-.78-12.55,8.76-23.36,21.31-24.14s23.36,8.76,24.14,21.31Z"/>
    <g>
      <path class="cls-5" d="M557.95,524.29c-1.27-86.53-71.47-79.37-71.47-79.37,15.89-31.99,48.86-7.36,48.86-7.36l20.73-34.89s-8.49-12.14-34.07-18.92c-48.56-11.1-67.32,36.89-67.32,36.89-2.57-11.94-18.24-39.74-52.5-43.85-34.25-4.11-58.3,23.55-58.3,23.55l25.53,34.65c34.71-27.3,50.7,8.8,50.7,8.8l-77.59-2.58-1.51,45.46,22.01.73s-19.41,13.67-23.41,41.47c-3.13,21.77,2.7,74.72,54.37,76.44,46.79,1.56,52.98-21.57,52.98-21.57,26.23,46.82,112.27,27.08,111-59.45ZM448.17,541.2s-5.41,26.8-35.81,22.85c-11.75-1.53-29.57-6.39-31.18-22.93-7.29-74.95,70.2-51.47,70.2-51.47,0,0,61.69-16.4,63.27,35.36,1.26,41.42-50.8,59.7-66.47,16.19Z"/>
      <path class="cls-6" d="M404.34,369.91l-39.85-32.01s19.89-53.29,94.07-48.9c74.17,4.4,88.23,62.97,88.23,62.97l-44.23,19.43s-7.5-28.41-46.72-32.54c-39.22-4.12-51.51,31.04-51.51,31.04Z"/>
    </g>
    <g>
      <path class="cls-9" d="M788.58,518.82c-7.13-86.24-76.69-74.34-76.69-74.34,13.68-32.99,48.25-10.65,48.25-10.65l18.32-36.21s-9.29-11.54-35.28-16.57c-49.21-7.79-64.67,41.37-64.67,41.37-3.37-11.74-20.89-38.41-55.35-40.19-34.45-1.77-56.57,27.45-56.57,27.45l27.82,32.84c32.78-29.59,51.18,5.35,51.18,5.35l-77.58,2.68,1.57,45.45,22.01-.76s-18.44,14.95-20.55,42.96c-1.65,21.93,7.76,74.36,59.43,72.58,46.79-1.62,51.39-25.11,51.39-25.11,29.34,44.94,113.84,19.41,106.71-66.83ZM680.19,543.13s-3.58,27.1-34.18,25.22c-11.83-.73-29.94-4.38-32.66-20.76-12.35-74.28,66.55-56.11,66.55-56.11,0,0,60.44-20.54,65.52,30.99,4.07,41.24-46.63,63.01-65.22,20.66Z"/>
      <path class="cls-3" d="M718.48,374.48l-2.83-82.03,51.68,2.66-12.14,81.31s-8.64-3.21-19.44-3.84c-9.58-.56-17.26,1.89-17.26,1.89Z"/>
    </g>
  </g>
  <g class="cls-11">
    <polygon class="cls-8" points="115.73 251.41 137.99 238.32 137.99 89.06 115.73 75.74 172.16 69.14 223.26 169.02 274.44 59.35 364.75 50.84 342.49 75.74 342.49 248.32 364.75 271.82 254.76 262.81 281.36 246.32 281.36 112.38 223.26 226.33 169.68 116.38 169.68 238.99 189.25 257.44 115.73 251.41"/>
    <path class="cls-8" d="M372.13,272.43l7.9-6.79v-107.45l-7.9-8.62,41.3-.64-5.66,7.26v12.83s11.35-19.3,33.96-20.08,35.09,29.25,22.07,48.74c-13.02,19.49-53.37-.6-39.8-24.49,0,0-13.4,2.5-15.1,13.99v78.46l11.7,10.76-48.47-3.97Z"/>
    <ellipse class="cls-8" cx="450.84" cy="265.64" rx="14.71" ry="12.99"/>
  </g>
  <g>
    <path class="cls-8" d="M62.59,354.05s6.08-58.04,36.44-75.42c0,0-39.42,3.71-36.44,75.42Z"/>
    <path class="cls-8" d="M51.86,344.5s5.16-49.21,30.89-63.94c0,0-33.42,3.15-30.89,63.94Z"/>
  </g>
  <g>
    <path class="cls-8" d="M828.65,558.51s-9.42,57.6-40.73,73.19c0,0,39.57-1.43,40.73-73.19Z"/>
    <path class="cls-8" d="M838.81,568.67s-7.99,48.83-34.53,62.05c0,0,33.54-1.21,34.53-62.05Z"/>
  </g>
</svg>